<?xml version="1.0" encoding="iso-8859-1"?>
<!-- Generator: Adobe Illustrator 19.1.0, SVG Export Plug-In . SVG Version: 6.00 Build 0)  -->
<svg version="1.1" id="Capa_1" xmlns="http://www.w3.org/2000/svg" xmlns:xlink="http://www.w3.org/1999/xlink" x="0px" y="0px"
	 viewBox="0 0 508.82 508.82" style="enable-background:new 0 0 508.82 508.82;" xml:space="preserve">
<g>
	<g>
		<path style="fill:#231F20;" d="M254.41,508.82C114.378,508.82,0,394.442,0,254.41S114.378,0,254.41,0
			s254.41,114.378,254.41,254.41S395.511,508.82,254.41,508.82z M254.41,31C131.481,31,32.069,130.412,32.069,253.341
			s99.412,222.342,222.342,222.342s222.341-99.412,222.341-222.342C477.82,130.412,377.339,31,254.41,31z"/>
		<path style="fill:#231F20;" d="M230.893,329.237c-4.276,0-8.552-2.138-11.758-4.276l-52.379-52.379
			c-6.414-6.414-6.414-16.034,0-22.448c6.414-6.414,16.034-6.414,22.448,0l40.62,40.62l95.137-92.999
			c6.414-6.414,16.034-6.414,22.448,0c6.414,6.414,6.414,16.034,0,22.448L242.652,324.961
			C239.445,328.167,235.169,329.236,230.893,329.237z"/>
	</g>
</g>
<g>
</g>
<g>
</g>
<g>
</g>
<g>
</g>
<g>
</g>
<g>
</g>
<g>
</g>
<g>
</g>
<g>
</g>
<g>
</g>
<g>
</g>
<g>
</g>
<g>
</g>
<g>
</g>
<g>
</g>
</svg>
