<?xml version="1.0" encoding="iso-8859-1"?>
<!-- Generator: Adobe Illustrator 18.0.0, SVG Export Plug-In . SVG Version: 6.00 Build 0)  -->
<!DOCTYPE svg PUBLIC "-//W3C//DTD SVG 1.1//EN" "http://www.w3.org/Graphics/SVG/1.1/DTD/svg11.dtd">
<svg version="1.1" id="Capa_1" xmlns="http://www.w3.org/2000/svg" xmlns:xlink="http://www.w3.org/1999/xlink" x="0px" y="0px"
	 viewBox="0 0 388.227 388.227" style="enable-background:new 0 0 388.227 388.227;" xml:space="preserve">
<g>
	<path d="M362.953,271.075l-22.71-60.84v-94.76h-0.001c-0.031-2.378-1.189-4.6-3.119-5.988L187.067,1.533
		c0,0.001-0.001,0.001-0.002,0.002c-2.555-1.949-6.182-2.099-8.925-0.122L27.918,109.487c-1.931,1.389-3.088,3.61-3.119,5.988
		c-0.031,2.378,1.067,4.63,2.959,6.069l75.89,57.722v22.596c0,33.551,13.485,63.234,34.034,81.045v22.033
		c-20.952,4.897-87.863,24.267-99.969,74.014c-0.543,2.236-0.031,4.599,1.391,6.407c1.422,1.81,3.596,2.866,5.897,2.866h275.038
		c2.302,0,4.476-1.057,5.897-2.866c1.422-1.809,1.935-4.171,1.391-6.407c-12.104-49.746-79.015-69.116-99.968-74.014v-22.034
		c20.549-17.811,34.033-47.494,34.033-81.044v-22.596l63.851-48.564v79.532l-22.71,60.841c-1.449,3.881,0.524,8.201,4.404,9.65
		c0.863,0.323,1.75,0.475,2.621,0.475c3.041,0,5.901-1.863,7.027-4.879l8.657-23.192v20.569c0,4.143,3.358,7.5,7.5,7.5
		s7.5-3.357,7.5-7.5v-20.569l8.657,23.192c1.125,3.016,3.986,4.879,7.027,4.879c0.871,0,1.757-0.153,2.621-0.475
		C362.43,279.276,364.402,274.956,362.953,271.075z M55.542,373.227c3.835-8.272,9.774-15.427,16.821-21.583l17.396,21.583H55.542z
		 M109.024,373.227l-24.636-30.566c11.36-7.33,23.905-12.744,34.734-16.572l37.46,47.139H109.024z M190.56,373.227h-14.817
		l-7.092-8.924h29.001L190.56,373.227z M309.503,373.227h-32.96l16.885-20.949C300.145,358.29,305.804,365.234,309.503,373.227z
		 M281.5,343.174l-24.223,30.054h-47.559l37.197-46.808C257.787,330.315,270.264,335.787,281.5,343.174z M231.621,321.558
		l-22.049,27.745h-52.842l-22.268-28.021c7.192-1.972,11.873-2.862,12.066-2.898c3.564-0.65,6.152-3.756,6.152-7.378V293.1
		c9.21,4.721,19.284,7.332,29.838,7.332c10.555,0,20.63-2.611,29.84-7.333v17.907c0,3.622,2.59,6.728,6.152,7.378
		C218.715,318.422,223.84,319.391,231.621,321.558z M182.52,285.432c-32.364,0-59.166-31.666-63.301-72.559
		c12.609-7.984,55.799-33.89,97.449-42.07c2.815,12.908,10.441,38.633,27.977,50.416
		C237.952,257.994,212.647,285.432,182.52,285.432z M118.648,195.58v-5.012c6.937-15.934,34.604-28.257,63.939-28.257
		c2.274,0,4.53,0.078,6.766,0.216C159.987,172.084,133.232,186.813,118.648,195.58z M246.393,201.862
		c0,0.268-0.014,0.53-0.016,0.797c-6.043-7.312-10.238-17.582-12.889-26.524c6.08,4.166,10.599,9.067,12.904,14.425V201.862z
		 M246.393,167.251c-14.943-12.19-38.415-19.939-63.806-19.939c-25.444,0-48.969,7.759-63.939,19.966v-13.712
		c0-19.854,29.28-36.627,63.939-36.627c34.587,0,63.806,16.773,63.806,36.627V167.251z M261.393,160.42v-6.854
		c0-28.95-34.615-51.627-78.806-51.627c-20.428,0-39.757,4.987-54.428,14.043c-15.807,9.757-24.512,23.104-24.512,37.584v6.855
		l-58.74-44.678L182.52,16.74l137.613,99.003L261.393,160.42z"/>
</g>
<g>
</g>
<g>
</g>
<g>
</g>
<g>
</g>
<g>
</g>
<g>
</g>
<g>
</g>
<g>
</g>
<g>
</g>
<g>
</g>
<g>
</g>
<g>
</g>
<g>
</g>
<g>
</g>
<g>
</g>
</svg>
