<?xml version="1.0" encoding="iso-8859-1"?>
<!-- Generator: Adobe Illustrator 18.0.0, SVG Export Plug-In . SVG Version: 6.00 Build 0)  -->
<!DOCTYPE svg PUBLIC "-//W3C//DTD SVG 1.1//EN" "http://www.w3.org/Graphics/SVG/1.1/DTD/svg11.dtd">
<svg version="1.1" id="Capa_1" xmlns="http://www.w3.org/2000/svg" xmlns:xlink="http://www.w3.org/1999/xlink" x="0px" y="0px"
	 viewBox="0 0 378.178 378.178" style="enable-background:new 0 0 378.178 378.178;" xml:space="preserve">
<g>
	<g>
		<g>
			<g>
				<path d="M189.089,277.195c-18.452,0-33.464-15.012-33.464-33.463c0-18.451,15.012-33.463,33.464-33.463
					s33.463,15.012,33.463,33.463C222.552,262.184,207.541,277.195,189.089,277.195z M189.089,225.27
					c-10.181,0-18.464,8.282-18.464,18.463c0,10.181,8.283,18.463,18.464,18.463c10.181,0,18.463-8.282,18.463-18.463
					C207.552,233.552,199.27,225.27,189.089,225.27z"/>
			</g>
			<g>
				<g>
					<path d="M306.484,129.6H71.692c-4.142,0-7.5-3.357-7.5-7.5c0-4.143,3.358-7.5,7.5-7.5h234.792c4.143,0,7.5,3.357,7.5,7.5
						C313.984,126.242,310.627,129.6,306.484,129.6z"/>
				</g>
				<g>
					<path d="M306.484,169.504H71.692c-4.142,0-7.5-3.357-7.5-7.5c0-4.143,3.358-7.5,7.5-7.5h234.792c4.143,0,7.5,3.357,7.5,7.5
						C313.984,166.147,310.627,169.504,306.484,169.504z"/>
				</g>
				<g>
					<path d="M279.652,197.389H98.525c-4.142,0-7.5-3.357-7.5-7.5c0-4.143,3.358-7.5,7.5-7.5h181.127c4.142,0,7.5,3.357,7.5,7.5
						C287.152,194.031,283.794,197.389,279.652,197.389z"/>
				</g>
			</g>
			<g>
				<g>
					<path d="M138.197,251.232H91.934c-4.143,0-7.5-3.357-7.5-7.5c0-4.143,3.357-7.5,7.5-7.5h46.264c4.143,0,7.5,3.357,7.5,7.5
						C145.697,247.875,142.34,251.232,138.197,251.232z"/>
				</g>
				<g>
					<path d="M286.244,251.232H239.98c-4.142,0-7.5-3.357-7.5-7.5c0-4.143,3.358-7.5,7.5-7.5h46.265c4.143,0,7.5,3.357,7.5,7.5
						C293.744,247.875,290.387,251.232,286.244,251.232z"/>
				</g>
			</g>
		</g>
		<path d="M370.678,50.313H7.5c-4.142,0-7.5,3.357-7.5,7.5v262.553c0,4.143,3.358,7.5,7.5,7.5h363.178c4.142,0,7.5-3.357,7.5-7.5
			V57.813C378.178,53.67,374.819,50.313,370.678,50.313z M363.178,261.89c-2.829,0.361-5.594,0.921-8.283,1.67V114.61
			c2.689,0.748,5.454,1.311,8.283,1.673V261.89z M363.178,65.313v35.811c-18.241-3.15-32.659-17.568-35.809-35.811H363.178z
			 M65.975,65.313h246.24c0.362,2.844,0.928,5.625,1.684,8.328H64.268C65.021,70.935,65.611,68.16,65.975,65.313z M15,65.313h35.816
			C47.666,83.555,33.243,97.972,15,101.121V65.313z M15,116.281c2.827-0.361,5.594-0.918,8.283-1.665v148.944
			c-2.689-0.748-5.455-1.309-8.283-1.669V116.281z M15,312.865v-35.809c18.242,3.149,32.666,17.567,35.814,35.809H15z
			 M38.283,270.107V108.068c7.904-4.856,14.559-11.533,19.422-19.428h262.756c4.865,7.896,11.531,14.564,19.434,19.422V270.1
			c-7.908,4.862-14.59,11.532-19.457,19.438H57.735C52.869,281.635,46.189,274.967,38.283,270.107z M64.293,304.537h249.599
			c-0.755,2.703-1.316,5.484-1.679,8.328H65.974C65.611,310.022,65.047,307.24,64.293,304.537z M327.369,312.865
			c3.15-18.24,17.566-32.661,35.809-35.81v35.81H327.369z"/>
	</g>
</g>
<g>
</g>
<g>
</g>
<g>
</g>
<g>
</g>
<g>
</g>
<g>
</g>
<g>
</g>
<g>
</g>
<g>
</g>
<g>
</g>
<g>
</g>
<g>
</g>
<g>
</g>
<g>
</g>
<g>
</g>
</svg>
