<?xml version='1.0' encoding='iso-8859-1'?>
<!DOCTYPE svg PUBLIC '-//W3C//DTD SVG 1.1//EN' 'http://www.w3.org/Graphics/SVG/1.1/DTD/svg11.dtd'>
<svg version="1.1" xmlns="http://www.w3.org/2000/svg" viewBox="0 0 436.1 436.1" xmlns:xlink="http://www.w3.org/1999/xlink" enable-background="new 0 0 436.1 436.1">
  <g>
    <path d="m426.1,241.573h-88.539v-75.833c0-5.523-4.478-10-10-10h-41.013v-31.6c0-5.523-4.478-10-10-10h-48.497v-47.804c0-5.523-4.478-10-10-10s-10,4.477-10,10v47.803h-48.497c-5.522,0-10,4.477-10,10v31.601h-41.015c-5.522,0-10,4.477-10,10v75.833h-88.539c-5.522,0-10,4.477-10,10v118.19c0,5.523 4.478,10 10,10h416.1c5.522,0 10-4.477 10-10v-118.19c0-5.523-4.478-10-10-10zm-187.302,118.188h-41.497v-60.629h41.497v60.629zm-69.244-225.621h96.994v21.601h-96.994v-21.601zm148.007,41.601v184.021h-58.763v-70.629c0-5.523-4.478-10-10-10h-61.497c-5.522,0-10,4.477-10,10v70.629h-58.762v-184.021h199.022zm-297.561,85.832h78.539v98.19h-78.539v-98.19zm396.1,98.19h-78.539v-98.19h78.539v98.19z"/>
    <path d="m138.716,213.003h158.667c5.522,0 10-4.477 10-10s-4.478-10-10-10h-158.667c-5.522,0-10,4.477-10,10s4.477,10 10,10z"/>
    <path d="m138.716,256.114h158.667c5.522,0 10-4.477 10-10s-4.478-10-10-10h-158.667c-5.522,0-10,4.477-10,10s4.477,10 10,10z"/>
    <path d="m138.716,299.226h20.48c5.522,0 10-4.477 10-10s-4.478-10-10-10h-20.48c-5.522,0-10,4.477-10,10s4.477,10 10,10z"/>
    <path d="m297.383,279.226h-20.479c-5.522,0-10,4.477-10,10s4.478,10 10,10h20.479c5.522,0 10-4.477 10-10s-4.478-10-10-10z"/>
    <path d="m366.59,299.226h20.48c5.522,0 10-4.477 10-10s-4.478-10-10-10h-20.48c-5.522,0-10,4.477-10,10s4.477,10 10,10z"/>
    <path d="m138.716,342.336h20.48c5.522,0 10-4.477 10-10s-4.478-10-10-10h-20.48c-5.522,0-10,4.477-10,10s4.477,10 10,10z"/>
    <path d="m297.383,322.336h-20.479c-5.522,0-10,4.477-10,10s4.478,10 10,10h20.479c5.522,0 10-4.477 10-10s-4.478-10-10-10z"/>
    <path d="m387.07,322.336h-20.48c-5.522,0-10,4.477-10,10s4.478,10 10,10h20.48c5.522,0 10-4.477 10-10s-4.477-10-10-10z"/>
    <path d="m49.029,299.226h20.479c5.522,0 10-4.477 10-10s-4.478-10-10-10h-20.479c-5.522,0-10,4.477-10,10s4.478,10 10,10z"/>
    <path d="m69.509,322.336h-20.48c-5.522,0-10,4.477-10,10s4.478,10 10,10h20.479c5.522,0 10-4.477 10-10s-4.477-10-9.999-10z"/>
  </g>
</svg>
