<?xml version="1.0" encoding="iso-8859-1"?>
<!-- Generator: Adobe Illustrator 16.0.0, SVG Export Plug-In . SVG Version: 6.00 Build 0)  -->
<!DOCTYPE svg PUBLIC "-//W3C//DTD SVG 1.1//EN" "http://www.w3.org/Graphics/SVG/1.1/DTD/svg11.dtd">
<svg version="1.1" id="Capa_1" xmlns="http://www.w3.org/2000/svg" xmlns:xlink="http://www.w3.org/1999/xlink" x="0px" y="0px"
	 width="54.664px" height="54.665px" viewBox="0 0 54.664 54.665" style="enable-background:new 0 0 54.664 54.665;"
	 xml:space="preserve">
<g>
	<path d="M47.996,5.083H33.003c-2.396,0-4.493,1.273-5.67,3.174c-1.176-1.9-3.273-3.174-5.669-3.174H6.669
		C2.991,5.083,0,8.074,0,11.752V38.08c0,3.679,2.991,6.669,6.669,6.669h14.995c2.294,0,4.276,1.711,4.612,3.979
		c0.072,0.491,0.493,0.854,0.988,0.854c0.024,0,0.045-0.01,0.068-0.012c0.023,0.002,0.045,0.012,0.068,0.012
		c0.496,0,0.917-0.362,0.99-0.854c0.336-2.269,2.318-3.979,4.611-3.979h14.993c3.679,0,6.67-2.99,6.67-6.669V11.752
		C54.667,8.074,51.675,5.083,47.996,5.083z M21.664,42.749H6.669C4.095,42.749,2,40.654,2,38.08V11.752
		c0-2.574,2.095-4.669,4.669-4.669h14.995c2.575,0,4.669,2.095,4.669,4.669v32.924C25.118,43.481,23.458,42.749,21.664,42.749z
		 M52.667,38.08c0,2.574-2.095,4.669-4.671,4.669H33.003c-1.794,0-3.455,0.732-4.67,1.928V11.752c0-2.574,2.096-4.669,4.67-4.669
		h14.993c2.576,0,4.671,2.095,4.671,4.669V38.08z"/>
</g>
<g>
</g>
<g>
</g>
<g>
</g>
<g>
</g>
<g>
</g>
<g>
</g>
<g>
</g>
<g>
</g>
<g>
</g>
<g>
</g>
<g>
</g>
<g>
</g>
<g>
</g>
<g>
</g>
<g>
</g>
</svg>
