<?xml version="1.0" encoding="iso-8859-1"?>
<!-- Generator: Adobe Illustrator 18.1.1, SVG Export Plug-In . SVG Version: 6.00 Build 0)  -->
<svg version="1.1" id="Capa_1" xmlns="http://www.w3.org/2000/svg" xmlns:xlink="http://www.w3.org/1999/xlink" x="0px" y="0px"
	 viewBox="0 0 332.921 332.921" style="enable-background:new 0 0 332.921 332.921;" xml:space="preserve">
<path d="M324.921,286.652H8.002c-4.418,0-8-3.582-8-8v-4.484c-0.003-0.121-0.003-0.243,0-0.364V54.269c0-4.418,3.582-8,8-8h316.919
	c4.418,0,8,3.582,8,8v224.383C332.921,283.071,329.339,286.652,324.921,286.652z M181.616,270.652h135.305V62.269H181.616V270.652z
	 M17.99,270.652h145.642l-6.35-15.646c-9.746-24.011-20.762-37.826-35.207-43.376l-24.804,33.989
	c-1.506,2.064-3.907,3.284-6.462,3.284s-4.956-1.22-6.462-3.284L59.542,211.63c-14.446,5.551-25.461,19.366-35.205,43.376
	L17.99,270.652z M76.071,192.757h29.477c31.784,0,49.341,21.095,60.069,41.945V62.269H16.002V234.7
	C26.73,213.851,44.286,192.757,76.071,192.757z M77.252,208.757l13.557,18.576l13.556-18.576H77.252z M282.562,233.87h-8.693
	c-4.418,0-8-3.582-8-8s3.582-8,8-8h8.693c4.418,0,8,3.582,8,8S286.98,233.87,282.562,233.87z M243.958,233.87h-23.687
	c-4.418,0-8-3.582-8-8s3.582-8,8-8h23.687c4.418,0,8,3.582,8,8S248.376,233.87,243.958,233.87z M90.809,177.887
	c-24.41,0-44.269-19.859-44.269-44.269c0-24.41,19.858-44.269,44.269-44.269s44.269,19.859,44.269,44.269
	C135.077,158.028,115.219,177.887,90.809,177.887z M90.809,105.349c-15.587,0-28.269,12.682-28.269,28.269
	s12.682,28.269,28.269,28.269s28.269-12.681,28.269-28.269S106.396,105.349,90.809,105.349z M282.562,147.227h-62.29
	c-4.418,0-8-3.582-8-8s3.582-8,8-8h62.29c4.418,0,8,3.582,8,8S286.98,147.227,282.562,147.227z M262.583,115.053h-42.558
	c-4.418,0-8-3.582-8-8s3.582-8,8-8h42.558c4.418,0,8,3.582,8,8S267.001,115.053,262.583,115.053z"/>
<g>
</g>
<g>
</g>
<g>
</g>
<g>
</g>
<g>
</g>
<g>
</g>
<g>
</g>
<g>
</g>
<g>
</g>
<g>
</g>
<g>
</g>
<g>
</g>
<g>
</g>
<g>
</g>
<g>
</g>
</svg>
