<?xml version="1.0" encoding="utf-8"?>
<!-- Generator: Adobe Illustrator 16.0.3, SVG Export Plug-In . SVG Version: 6.00 Build 0)  -->
<!DOCTYPE svg PUBLIC "-//W3C//DTD SVG 1.1//EN" "http://www.w3.org/Graphics/SVG/1.1/DTD/svg11.dtd">
<svg version="1.1" id="Layer_1" xmlns="http://www.w3.org/2000/svg" xmlns:xlink="http://www.w3.org/1999/xlink" x="0px" y="0px"
	 width="24px" height="24px" viewBox="0 0 24 24" enable-background="new 0 0 24 24" xml:space="preserve">
<path fill="none" d="M0,0h24v24H0V0z"/>
<path d="M12,2C6.48,2,2,6.48,2,12c0,5.52,4.48,10,10,10c5.52,0,10-4.48,10-10C22,6.48,17.52,2,12,2z M12,20c-4.41,0-8-3.59-8-8
	s3.59-8,8-8s8,3.59,8,8S16.41,20,12,20z M6.844,12.208c0-1.088,0.885-1.973,1.973-1.973h2.546V9.025H8.817
	c-1.756,0-3.182,1.426-3.182,3.183c0,1.757,1.426,3.182,3.182,3.182h2.546v-1.208H8.817C7.729,14.182,6.844,13.297,6.844,12.208z
	 M9.454,12.844h5.091v-1.272H9.454V12.844z M15.182,9.025h-2.547v1.209h2.547c1.088,0,1.973,0.885,1.973,1.973
	c0,1.089-0.885,1.974-1.973,1.974h-2.547v1.208h2.547c1.758,0,3.184-1.425,3.184-3.182C18.365,10.452,16.939,9.025,15.182,9.025z"/>
</svg>
